<?xml version="1.0" standalone="no"?>
<!DOCTYPE svg PUBLIC "-//W3C//DTD SVG 20010904//EN"
 "http://www.w3.org/TR/2001/REC-SVG-20010904/DTD/svg10.dtd">
<svg version="1.0" xmlns="http://www.w3.org/2000/svg"
 width="400.000000pt" height="400.000000pt" viewBox="0 0 400.000000 400.000000"
 preserveAspectRatio="xMidYMid meet">

<g transform="translate(0.000000,400.000000) scale(0.100000,-0.100000)"
fill="#000000" stroke="none">
<path d="M2975 3211 c-115 -52 -166 -187 -115 -299 l20 -44 -181 -188 -181
-187 -47 14 c-109 34 -232 -25 -278 -134 -18 -45 -16 -131 6 -178 10 -22 35
-56 55 -76 l37 -35 -66 -270 c-88 -361 -83 -344 -103 -344 -10 1 -95 102 -214
257 -191 248 -197 258 -183 280 26 39 38 116 25 165 -28 106 -102 168 -210
175 -57 4 -72 1 -120 -24 -77 -40 -120 -112 -120 -198 0 -56 18 -111 51 -156
10 -13 -17 -72 -141 -317 l-152 -302 -54 0 c-207 0 -356 -212 -283 -405 29
-77 104 -155 173 -178 205 -70 409 72 409 284 0 85 -33 158 -99 218 l-45 42
150 292 150 292 58 0 c32 0 70 4 84 8 24 8 35 -4 213 -233 181 -234 187 -243
167 -257 -11 -7 -33 -35 -48 -61 -23 -38 -28 -59 -28 -113 0 -56 5 -73 30
-115 77 -123 237 -149 346 -56 52 45 78 101 79 170 0 67 -21 116 -71 168 l-40
41 74 304 74 304 45 6 c146 22 232 170 179 309 l-21 55 184 184 184 184 51
-13 c139 -33 281 80 281 224 0 80 -60 173 -134 207 -53 24 -139 24 -191 0z
m155 -106 c35 -18 60 -62 60 -103 0 -66 -83 -133 -146 -118 -15 4 -42 22 -61
41 -25 25 -33 41 -33 69 0 44 21 89 52 110 28 20 90 20 128 1z m-669 -710 c35
-18 69 -70 69 -103 0 -68 -58 -122 -130 -122 -34 0 -48 6 -76 34 -29 29 -34
41 -34 79 0 94 91 153 171 112z m-856 -188 c42 -42 52 -77 33 -125 -15 -41
-68 -82 -105 -82 -39 0 -93 30 -108 61 -8 15 -15 47 -15 70 0 33 6 47 34 75
29 29 41 34 81 34 40 0 52 -5 80 -33z m585 -862 c80 -41 78 -169 -2 -211 -86
-45 -192 34 -174 130 14 76 105 118 176 81z m-1083 -138 c67 -46 98 -123 81
-199 -31 -141 -207 -198 -312 -100 -103 96 -78 253 49 314 56 26 132 20 182
-15z"/>
</g>
</svg>
