<?xml version="1.0" standalone="no"?>
<!DOCTYPE svg PUBLIC "-//W3C//DTD SVG 20010904//EN"
 "http://www.w3.org/TR/2001/REC-SVG-20010904/DTD/svg10.dtd">
<svg version="1.0" xmlns="http://www.w3.org/2000/svg"
 width="400.000000pt" height="400.000000pt" viewBox="0 0 400.000000 400.000000"
 preserveAspectRatio="xMidYMid meet">

<g transform="translate(0.000000,400.000000) scale(0.100000,-0.100000)"
fill="#000000" stroke="none">
<path d="M1565 3241 c-120 -54 -173 -185 -129 -315 l17 -48 -153 -153 -153
-154 -30 15 c-81 42 -205 22 -272 -43 -53 -51 -75 -105 -75 -183 0 -57 5 -73
33 -120 110 -184 383 -149 443 58 18 59 13 119 -12 167 l-15 29 157 157 157
158 31 -17 c42 -22 160 -22 201 0 l30 17 157 -156 157 -156 -17 -31 c-25 -47
-22 -160 5 -211 57 -108 176 -157 298 -124 54 15 139 100 154 154 15 56 14
114 -5 169 l-17 48 155 154 154 155 34 -18 c50 -26 153 -24 205 4 90 48 135
123 135 226 0 219 -282 321 -426 153 -63 -73 -78 -180 -38 -258 l16 -31 -157
-157 -158 -158 -45 20 c-52 24 -139 21 -188 -5 l-29 -16 -157 156 -157 156 16
30 c27 53 28 136 3 195 -24 56 -83 116 -136 138 -47 20 -141 17 -189 -5z m173
-108 c59 -37 79 -129 42 -190 -62 -102 -224 -75 -250 42 -27 119 105 214 208
148z m1303 1 c52 -26 79 -97 60 -156 -39 -117 -203 -132 -255 -24 -35 75 -8
153 67 186 44 21 80 19 128 -6z m-1956 -654 c83 -51 84 -180 3 -230 -72 -44
-169 -16 -203 59 -25 56 -14 105 35 153 33 33 43 38 85 38 30 0 60 -7 80 -20z
m1302 0 c90 -54 91 -166 1 -233 -32 -24 -109 -25 -144 -2 -58 38 -81 124 -49
186 34 64 128 89 192 49z"/>
<path d="M1431 2117 c-8 -10 -12 -199 -13 -643 l-3 -629 -77 -3 -78 -3 0 386
c0 372 -1 386 -20 405 -19 19 -33 20 -228 20 -164 0 -212 -3 -228 -14 -18 -14
-19 -31 -21 -403 l-3 -388 -57 -3 c-40 -2 -62 -8 -70 -19 -17 -23 -16 -48 3
-67 14 -14 150 -16 1354 -16 1204 0 1340 2 1354 16 19 19 20 44 4 67 -9 11
-31 17 -71 19 l-58 3 1 615 c0 478 -3 621 -13 640 l-13 25 -218 3 c-193 2
-221 0 -237 -14 -18 -16 -19 -47 -19 -646 l0 -629 -77 3 -78 3 -3 384 c-2 340
-4 387 -19 403 -15 16 -36 18 -222 18 -171 0 -210 -3 -229 -16 l-22 -15 0
-390 0 -389 -80 0 -80 0 0 189 c0 185 -1 190 -22 205 -30 21 -44 20 -68 -4
-19 -19 -20 -33 -20 -205 l0 -186 -137 3 -138 3 0 590 0 590 138 3 137 3 0
-186 c0 -172 1 -186 20 -205 24 -24 38 -25 68 -4 22 15 22 19 22 235 0 133 -4
228 -10 240 -10 18 -23 19 -234 19 -175 0 -226 -3 -235 -13z m1677 -679 l-3
-593 -137 -3 -138 -3 0 596 0 595 140 0 140 0 -2 -592z m-1958 -248 l0 -351
-137 3 -138 3 -3 348 -2 347 140 0 140 0 0 -350z m1308 3 l-3 -348 -137 -3
-138 -3 0 351 0 350 140 0 140 0 -2 -347z"/>
<path d="M1820 1470 c-11 -11 -20 -27 -20 -35 0 -18 35 -55 53 -55 24 0 57 31
57 54 0 26 -28 56 -53 56 -9 0 -26 -9 -37 -20z"/>
</g>
</svg>
