<?xml version="1.0" standalone="no"?>
<!DOCTYPE svg PUBLIC "-//W3C//DTD SVG 20010904//EN"
 "http://www.w3.org/TR/2001/REC-SVG-20010904/DTD/svg10.dtd">
<svg version="1.0" xmlns="http://www.w3.org/2000/svg"
 width="400.000000pt" height="400.000000pt" viewBox="0 0 400.000000 400.000000"
 preserveAspectRatio="xMidYMid meet">

<g transform="translate(0.000000,400.000000) scale(0.100000,-0.100000)"
fill="#000000" stroke="none">
<path d="M1840 3593 c-262 -26 -549 -133 -767 -286 -113 -79 -301 -267 -380
-380 -124 -176 -216 -391 -264 -617 -19 -89 -23 -136 -23 -305 0 -169 4 -216
23 -305 48 -226 140 -441 264 -617 79 -113 267 -301 380 -380 100 -70 268
-159 375 -197 495 -177 1042 -103 1469 197 113 79 301 267 380 380 231 328
331 733 278 1129 -26 191 -58 288 -96 288 -4 0 -17 -8 -29 -18 l-22 -18 20
-85 c36 -144 45 -219 45 -374 0 -181 -19 -302 -74 -470 -76 -228 -193 -418
-364 -590 -125 -124 -244 -210 -400 -285 -185 -90 -327 -130 -540 -151 -333
-32 -709 72 -998 278 -104 74 -266 236 -340 340 -126 176 -226 416 -263 628
-23 134 -23 366 0 500 37 211 137 451 263 628 76 107 236 266 348 346 284 201
652 302 985 272 374 -34 688 -179 945 -436 114 -114 190 -217 267 -359 57
-107 77 -128 106 -110 29 19 25 58 -14 136 -200 399 -585 706 -1027 819 -158
40 -388 58 -547 42z"/>
<path d="M1770 3305 c-487 -82 -875 -411 -1024 -869 -51 -156 -61 -227 -61
-436 1 -171 3 -207 24 -290 42 -169 111 -323 204 -458 82 -119 128 -144 189
-104 15 9 197 208 404 442 208 234 556 625 773 869 218 244 412 463 432 487
84 100 60 144 -128 238 -116 58 -242 100 -362 120 -113 19 -342 20 -451 1z
m417 -90 c50 -8 129 -27 175 -41 80 -25 242 -100 282 -129 21 -16 26 -9 -206
-266 l-87 -97 -42 14 c-136 47 -312 11 -424 -87 l-35 -31 -78 12 c-156 24
-294 -28 -243 -91 18 -23 21 -23 71 -10 38 10 84 12 164 7 121 -7 108 -11 207
60 24 17 66 39 92 48 51 17 183 22 205 7 10 -6 -101 -138 -428 -505 l-443
-497 -32 35 c-17 19 -45 38 -61 41 -107 23 -165 64 -200 140 -31 66 -31 134 0
202 26 54 86 108 135 120 76 18 117 54 140 124 6 20 25 58 42 84 26 40 29 52
20 72 -8 16 -19 23 -39 23 -34 0 -65 -39 -106 -133 -19 -41 -34 -60 -53 -68
-124 -48 -187 -101 -230 -195 -35 -76 -35 -182 0 -257 46 -100 134 -174 230
-192 37 -7 77 -44 77 -70 0 -15 -257 -305 -270 -305 -14 0 -125 172 -163 252
-258 544 -76 1214 417 1543 251 167 584 239 883 190z"/>
<path d="M1145 2746 c-63 -27 -107 -110 -90 -168 41 -134 205 -161 275 -46 74
122 -55 271 -185 214z m95 -96 c27 -27 26 -65 -2 -84 -29 -20 -47 -20 -70 1
-25 23 -23 68 4 87 30 21 44 20 68 -4z"/>
<path d="M1656 2314 c-40 -39 -1 -84 74 -84 76 0 114 45 72 83 -25 23 -124 23
-146 1z"/>
<path d="M1376 2004 c-22 -21 -20 -61 3 -74 50 -26 121 -1 121 43 0 40 -92 63
-124 31z"/>
<path d="M2888 2862 c-14 -9 -252 -271 -529 -582 -276 -311 -637 -717 -803
-903 -166 -185 -307 -352 -314 -370 -26 -65 8 -103 165 -181 208 -104 388
-142 637 -133 166 6 242 18 384 63 92 30 114 52 92 94 -14 26 -24 25 -155 -14
-310 -93 -629 -68 -910 71 -146 72 -144 54 -24 189 57 65 124 140 150 167 l45
50 80 2 c74 2 181 31 209 56 24 23 55 8 93 -43 105 -142 222 -201 394 -200 58
1 97 -4 115 -13 93 -49 213 25 213 130 0 28 9 54 30 85 66 98 88 250 54 371
l-16 57 40 54 c73 97 102 178 102 283 0 144 -69 280 -183 361 -29 21 -56 41
-61 45 -9 8 228 279 244 279 14 0 126 -173 163 -252 103 -217 139 -468 102
-708 -52 -347 -225 -629 -503 -824 -44 -31 -82 -62 -85 -69 -2 -6 -1 -22 4
-35 14 -37 57 -28 140 30 222 156 401 397 483 651 51 158 61 228 61 437 -1
171 -3 207 -24 290 -42 169 -111 323 -204 458 -82 119 -128 144 -189 104z
m-230 -451 c60 -31 121 -98 155 -169 60 -127 38 -273 -58 -384 -46 -54 -52
-94 -30 -180 23 -88 16 -176 -18 -252 l-26 -56 -35 15 c-48 20 -94 19 -136 -4
-42 -22 -80 -83 -80 -130 l0 -34 -72 5 c-116 8 -225 74 -283 174 -47 80 -120
97 -216 51 -31 -15 -77 -30 -104 -34 l-48 -6 454 511 c250 281 455 511 457
511 1 1 20 -8 40 -18z m-38 -1121 c28 -28 26 -66 -5 -86 -32 -21 -68 -12 -83
21 -13 29 -4 57 26 74 25 15 40 13 62 -9z"/>
<path d="M2430 2098 c-55 -29 -27 -88 40 -88 42 0 70 20 70 49 0 38 -66 61
-110 39z"/>
<path d="M2122 1764 c-48 -33 -10 -84 63 -84 71 0 108 46 67 83 -24 22 -100
22 -130 1z"/>
<path d="M2415 1614 c-39 -39 16 -98 72 -78 35 12 45 60 17 81 -25 18 -69 16
-89 -3z"/>
<path d="M2890 2490 c-11 -11 -20 -24 -20 -30 0 -18 39 -50 61 -50 37 0 59 19
59 50 0 49 -62 68 -100 30z"/>
<path d="M1890 1029 c-9 -16 -8 -26 5 -45 13 -21 23 -24 74 -24 45 0 62 4 76
20 15 17 16 24 7 45 -11 23 -17 25 -81 25 -61 0 -72 -3 -81 -21z"/>
</g>
</svg>
