<?xml version="1.0" standalone="no"?>
<!DOCTYPE svg PUBLIC "-//W3C//DTD SVG 20010904//EN"
 "http://www.w3.org/TR/2001/REC-SVG-20010904/DTD/svg10.dtd">
<svg version="1.0" xmlns="http://www.w3.org/2000/svg"
 width="400.000000pt" height="400.000000pt" viewBox="0 0 400.000000 400.000000"
 preserveAspectRatio="xMidYMid meet">

<g transform="translate(0.000000,400.000000) scale(0.100000,-0.100000)"
fill="#000000" stroke="none">
<path d="M2370 3037 c-54 -27 -60 -60 -60 -314 0 -168 -3 -233 -11 -233 -7 0
-26 16 -43 36 -26 30 -36 35 -55 29 -32 -10 -41 -43 -23 -83 l16 -33 -46 -45
-45 -46 -33 17 c-45 23 -80 8 -80 -34 0 -23 7 -34 30 -48 34 -20 34 -20 16
-88 -12 -46 -16 -50 -52 -57 -84 -18 -83 -98 0 -98 31 0 34 -3 44 -40 l10 -40
-104 0 -104 0 0 410 c0 454 -1 458 -61 479 -22 8 -233 11 -686 11 -697 0 -707
-1 -732 -48 -8 -15 -11 -297 -11 -927 l0 -907 29 -29 29 -29 279 0 c204 0 282
3 291 12 19 19 15 66 -7 78 -12 6 -117 10 -270 10 l-251 0 0 110 0 110 359 0
359 0 30 25 c17 14 64 93 118 199 l89 176 458 0 457 0 0 -310 0 -310 -578 0
c-448 0 -582 -3 -594 -13 -24 -19 -28 -43 -12 -66 l15 -21 1130 0 1131 0 29
29 29 29 0 145 0 145 93 87 c50 49 97 97 104 109 9 15 12 85 13 229 l0 209
-29 29 -29 29 -216 0 -216 0 0 130 c0 147 3 137 -99 305 -34 55 -70 103 -80
107 -25 9 -61 -17 -61 -44 0 -11 32 -72 70 -134 l70 -114 0 -595 0 -595 -335
0 -335 0 0 965 0 966 112 -3 111 -3 96 -157 c53 -87 103 -165 112 -174 21 -21
57 -10 71 20 9 20 -4 46 -97 199 -58 97 -118 186 -132 197 -23 18 -40 20 -157
20 -84 0 -140 -5 -156 -13z m-640 -348 l0 -71 -92 4 c-71 3 -103 10 -137 27
-27 14 -52 20 -67 17 -29 -8 -42 -49 -23 -72 34 -41 149 -74 261 -74 l58 0 0
-85 0 -85 -92 0 c-116 0 -154 -11 -216 -59 -93 -74 -125 -85 -237 -86 -115 0
-157 14 -240 84 -27 23 -66 46 -85 51 -19 6 -122 10 -227 10 l-193 0 0 205 0
205 645 0 645 0 0 -71z m580 -514 l0 -215 -84 0 -84 0 -11 31 c-30 87 -2 227
60 303 27 32 104 96 116 96 1 0 3 -97 3 -215z m-1429 40 c63 -54 118 -82 189
-101 123 -31 276 -3 370 69 89 67 88 67 193 67 l97 0 0 -145 0 -145 -645 0
-645 0 0 145 0 145 199 0 199 0 43 -35z m1429 -415 l0 -60 -935 0 -935 0 0 60
0 60 935 0 935 0 0 -60z m1260 0 l0 -60 -195 0 -195 0 0 60 0 60 195 0 195 0
0 -60z m-2290 -165 c0 -12 -133 -271 -148 -287 -14 -17 -44 -18 -354 -18
l-338 0 0 155 0 155 420 0 c231 0 420 -2 420 -5z m2290 -64 l0 -69 -91 -83
c-49 -45 -97 -95 -105 -110 -10 -20 -14 -64 -14 -159 l0 -130 -90 0 -90 0 0
310 0 310 195 0 195 0 0 -69z"/>
<path d="M700 2630 c-25 -25 -25 -42 -2 -63 15 -14 40 -17 125 -17 112 0 137
9 137 50 0 37 -38 50 -142 50 -85 0 -101 -3 -118 -20z"/>
<path d="M1136 2569 c-142 -33 -172 -194 -49 -265 38 -23 53 -26 108 -22 53 3
71 9 102 34 99 80 66 211 -62 250 -27 8 -51 14 -54 13 -3 -1 -23 -5 -45 -10z
m101 -113 c23 -20 26 -28 17 -43 -6 -10 -23 -24 -38 -31 -24 -12 -34 -12 -64
0 -31 12 -37 19 -37 43 0 54 74 73 122 31z"/>
<path d="M612 2138 c-15 -15 -15 -51 0 -66 7 -7 42 -12 88 -12 80 0 100 9 100
45 0 36 -20 45 -100 45 -46 0 -81 -5 -88 -12z"/>
<path d="M561 1531 c-17 -31 -13 -49 13 -66 33 -22 74 -10 83 23 9 36 -8 57
-50 60 -27 2 -38 -2 -46 -17z"/>
<path d="M760 1536 c-18 -23 -8 -59 21 -75 24 -13 29 -13 53 2 28 19 35 54 14
75 -17 17 -73 15 -88 -2z"/>
<path d="M956 1529 c-33 -47 29 -98 79 -65 27 18 31 36 15 67 -15 27 -74 26
-94 -2z"/>
</g>
</svg>
