<?xml version="1.0" standalone="no"?>
<!DOCTYPE svg PUBLIC "-//W3C//DTD SVG 20010904//EN"
 "http://www.w3.org/TR/2001/REC-SVG-20010904/DTD/svg10.dtd">
<svg version="1.0" xmlns="http://www.w3.org/2000/svg"
 width="400.000000pt" height="400.000000pt" viewBox="0 0 400.000000 400.000000"
 preserveAspectRatio="xMidYMid meet">

<g transform="translate(0.000000,400.000000) scale(0.100000,-0.100000)"
fill="#000000" stroke="none">
<path d="M1895 3214 c-11 -2 -51 -12 -90 -20 -85 -20 -178 -61 -263 -116 l-64
-41 -66 21 c-155 49 -275 53 -370 12 -176 -76 -199 -293 -65 -608 l36 -84 -22
-38 c-57 -102 17 -233 132 -231 23 0 53 2 65 3 20 3 27 -6 49 -59 l25 -62 -65
-93 c-158 -228 -263 -451 -298 -635 -10 -52 -18 -69 -58 -110 -95 -99 -94
-236 2 -331 98 -96 231 -96 330 -1 43 41 57 49 113 58 82 15 218 63 316 112
43 22 79 39 82 39 2 0 9 -20 15 -44 24 -98 117 -193 218 -222 171 -50 360 61
398 234 3 17 9 32 11 32 2 0 41 -18 85 -41 45 -22 129 -57 187 -77 97 -32 117
-36 217 -36 101 -1 114 1 161 26 170 89 189 296 57 606 l-36 84 22 38 c58 103
-16 231 -135 233 -45 0 -48 2 -90 61 -37 51 -42 62 -31 77 185 258 316 523
348 703 9 56 17 70 58 113 95 99 95 236 -2 331 -98 96 -231 96 -331 0 -36 -35
-59 -48 -90 -53 -22 -3 -80 -18 -128 -32 l-87 -26 -63 41 c-79 52 -174 94
-258 116 -62 17 -273 30 -315 20z m320 -104 c68 -21 225 -98 225 -110 0 -3
-30 -21 -67 -39 -90 -44 -213 -118 -297 -180 l-68 -49 -123 83 c-68 45 -166
104 -219 131 -53 27 -96 52 -96 55 0 9 152 86 206 103 91 29 137 35 254 32 82
-3 135 -10 185 -26z m873 3 c50 -38 67 -70 67 -132 0 -47 -5 -64 -27 -93 -75
-99 -224 -80 -272 34 -31 76 -1 159 74 200 44 24 120 20 158 -9z m-1738 -119
c62 -18 69 -22 54 -32 -32 -21 -113 -139 -150 -217 -45 -95 -68 -173 -79 -267
l-7 -58 -44 0 c-42 0 -44 1 -64 48 -74 163 -105 328 -80 418 15 54 62 105 111
122 45 15 189 8 259 -14z m1439 -121 c38 -74 104 -119 194 -129 l55 -6 -14
-58 c-24 -103 -102 -284 -170 -396 l-19 -31 0 136 c0 158 -19 240 -85 371 -35
70 -116 183 -144 202 -16 11 -5 17 75 37 l74 19 7 -54 c4 -29 16 -70 27 -91z
m-1183 16 c107 -55 324 -193 324 -207 0 -4 -49 -50 -109 -101 -123 -104 -345
-328 -436 -439 -32 -39 -62 -72 -66 -72 -3 0 -19 37 -34 83 -36 110 -45 257
-21 377 23 116 97 266 171 348 31 34 60 62 64 62 4 0 52 -23 107 -51z m969
-11 c74 -82 148 -232 171 -348 24 -120 15 -267 -21 -377 -15 -46 -31 -83 -34
-83 -4 0 -34 33 -66 73 -91 110 -313 334 -436 438 -60 51 -109 96 -109 100 0
23 384 253 432 258 3 1 32 -27 63 -61z m-455 -342 c113 -93 346 -327 448 -450
l82 -99 -18 -30 c-28 -51 -164 -180 -228 -216 -32 -19 -65 -41 -71 -50 -8 -8
-13 -42 -13 -78 l0 -63 -80 0 -80 0 0 287 0 287 55 56 55 56 -28 27 -28 27
-67 -69 -68 -70 3 -300 3 -301 -80 0 -80 0 3 301 3 300 -68 70 -67 69 -28 -27
-28 -27 55 -56 55 -56 0 -287 0 -287 -80 0 -80 0 0 63 c0 36 -5 70 -12 78 -7
9 -40 31 -72 50 -64 36 -200 165 -228 216 l-18 30 82 99 c106 127 335 357 462
462 83 69 102 80 115 70 9 -7 54 -44 101 -82z m-944 -263 c9 -52 9 -65 -3 -75
-23 -19 -71 -13 -98 12 -31 29 -32 68 -4 104 17 22 28 27 58 24 36 -3 36 -3
47 -65z m170 -404 c37 -55 146 -153 211 -192 52 -31 53 -33 53 -78 0 -42 -3
-48 -30 -59 -42 -17 -50 -37 -50 -118 0 -58 3 -71 23 -89 12 -11 30 -23 40
-26 25 -9 21 -36 -8 -43 -41 -10 -55 -41 -55 -119 0 -39 5 -76 11 -82 13 -13
-108 -66 -214 -93 l-72 -18 -7 54 c-17 125 -97 205 -221 220 l-55 6 14 57 c28
120 79 240 161 381 66 113 152 240 163 240 4 0 20 -18 36 -41z m1393 -4 l32
-45 -23 -31 c-31 -41 -31 -126 -2 -166 36 -48 82 -73 135 -73 48 0 48 0 69
-47 44 -97 80 -223 86 -297 16 -183 -67 -267 -249 -253 -110 8 -349 92 -318
111 6 4 11 36 11 79 0 80 -14 111 -55 121 -29 7 -33 34 -7 43 9 3 27 15 40 26
19 18 22 31 22 89 0 81 -8 101 -50 118 -27 11 -30 17 -30 59 0 45 1 47 53 78
65 39 174 137 211 192 16 23 32 41 36 41 3 0 21 -20 39 -45z m199 -108 c47
-43 11 -127 -54 -127 -66 0 -104 66 -68 118 31 45 78 49 122 9z m-538 -327 l0
-40 -395 0 -395 0 0 40 0 40 395 0 395 0 0 -40z m-80 -140 c0 -20 -7 -20 -315
-20 -308 0 -315 0 -315 20 0 20 7 20 315 20 308 0 315 0 315 -20z m80 -140 l0
-40 -395 0 -395 0 0 40 0 40 395 0 395 0 0 -40z m-1323 -20 c106 -48 120 -195
25 -268 -46 -35 -135 -39 -178 -6 -53 39 -69 71 -69 134 0 71 21 105 85 138
54 27 82 27 137 2z m1163 -110 c0 -6 -11 -33 -25 -60 -87 -172 -333 -172 -420
0 -14 27 -25 54 -25 60 0 6 80 10 235 10 155 0 235 -4 235 -10z"/>
</g>
</svg>
