<?xml version="1.0" standalone="no"?>
<!DOCTYPE svg PUBLIC "-//W3C//DTD SVG 20010904//EN"
 "http://www.w3.org/TR/2001/REC-SVG-20010904/DTD/svg10.dtd">
<svg version="1.0" xmlns="http://www.w3.org/2000/svg"
 width="400.000000pt" height="400.000000pt" viewBox="0 0 400.000000 400.000000"
 preserveAspectRatio="xMidYMid meet">

<g transform="translate(0.000000,400.000000) scale(0.100000,-0.100000)"
fill="#000000" stroke="none">
<path d="M1423 2567 l-803 -802 0 -147 c0 -111 3 -150 14 -160 7 -8 59 -23
115 -33 55 -10 101 -21 101 -24 0 -3 -52 -57 -115 -121 l-115 -117 0 -144 c0
-79 4 -150 9 -158 10 -15 1085 -234 1116 -227 11 3 379 364 818 803 l797 798
0 147 c0 111 -3 150 -14 160 -7 8 -59 23 -115 33 -55 10 -101 21 -101 24 0 3
52 57 115 121 l115 117 0 145 c0 126 -2 147 -17 160 -15 13 -1056 228 -1103
228 -8 0 -376 -361 -817 -803z m870 706 c4 -4 -84 -99 -196 -212 -391 -397
-670 -755 -946 -1216 -40 -66 -76 -124 -81 -129 -8 -8 -249 33 -299 50 -17 6
1475 1510 1500 1512 9 1 19 -1 22 -5z m181 -33 c6 0 17 -4 25 -9 11 -7 -16
-41 -119 -148 -73 -76 -171 -185 -217 -243 -265 -328 -464 -723 -568 -1124
-14 -55 -27 -102 -30 -104 -6 -6 -387 68 -397 77 -16 14 251 430 421 656 202
269 328 414 610 698 190 192 208 208 235 203 16 -4 34 -6 40 -6z m246 -51 c36
-6 67 -13 69 -15 2 -2 -82 -88 -186 -191 -206 -204 -273 -292 -362 -470 -82
-164 -141 -357 -156 -509 l-7 -69 -176 -177 c-174 -175 -192 -189 -235 -172
-13 5 -10 25 19 136 97 366 294 754 537 1057 42 51 147 169 234 262 121 129
163 168 178 164 11 -2 49 -9 85 -16z m345 -69 c82 -17 151 -32 154 -35 3 -3
-229 -240 -514 -525 -286 -286 -522 -515 -523 -510 -13 38 66 287 133 420 91
181 154 262 374 478 113 111 211 202 217 202 6 0 78 -14 159 -30z m207 -187
l-3 -68 -742 -742 c-408 -409 -744 -743 -747 -743 -3 0 -4 30 -2 67 l3 68 742
743 c408 408 744 742 747 742 3 0 4 -30 2 -67z m-94 -436 l52 -12 -350 -350
c-238 -238 -350 -344 -350 -330 0 37 57 184 101 262 35 62 82 117 229 266
l185 189 40 -7 c22 -3 64 -11 93 -18z m92 -162 l-5 -66 -742 -743 -743 -743 0
66 0 66 742 742 c409 409 745 743 748 743 3 0 3 -29 0 -65z m-801 -432 c-11
-32 -27 -96 -35 -144 l-16 -86 -347 -347 -347 -347 -52 7 c-39 5 -52 11 -52
23 0 9 22 61 49 117 37 77 54 103 72 107 13 4 186 169 384 367 198 198 361
360 362 360 1 0 -7 -26 -18 -57z m-1264 -311 l480 -97 3 -82 c2 -64 0 -83 -10
-83 -8 0 -227 43 -488 95 -261 52 -476 95 -477 95 -2 0 -3 38 -3 85 0 47 3 85
8 84 4 0 223 -44 487 -97z m-147 -229 c68 -13 83 -19 78 -32 -16 -52 -75 -214
-78 -217 -7 -6 -282 48 -293 57 -10 10 180 208 200 209 6 0 47 -7 93 -17z
m391 -78 c96 -19 176 -37 178 -39 2 -2 -11 -35 -30 -72 -19 -38 -42 -89 -51
-114 l-17 -46 -185 37 c-102 20 -188 40 -192 43 -6 7 29 119 63 199 13 31 19
36 38 32 12 -3 100 -21 196 -40z m-231 -296 l472 -94 0 -82 c0 -61 -3 -83 -13
-83 -7 0 -226 43 -487 95 -261 52 -476 95 -477 95 -2 0 -3 39 -3 86 0 77 2 86
18 82 9 -3 230 -47 490 -99z"/>
</g>
</svg>
