<?xml version="1.0" standalone="no"?>
<!DOCTYPE svg PUBLIC "-//W3C//DTD SVG 20010904//EN"
 "http://www.w3.org/TR/2001/REC-SVG-20010904/DTD/svg10.dtd">
<svg version="1.0" xmlns="http://www.w3.org/2000/svg"
 width="400.000000pt" height="400.000000pt" viewBox="0 0 400.000000 400.000000"
 preserveAspectRatio="xMidYMid meet">

<g transform="translate(0.000000,400.000000) scale(0.100000,-0.100000)"
fill="#000000" stroke="none">
<path d="M1643 3305 c-20 -19 -42 -35 -48 -35 -28 0 -173 -82 -223 -125 -102
-90 -181 -225 -204 -351 -11 -56 -17 -68 -41 -80 -15 -8 -39 -33 -54 -56 -51
-77 -28 -190 48 -235 28 -17 29 -20 29 -88 0 -39 7 -97 15 -129 22 -83 87
-203 146 -270 28 -31 50 -58 48 -59 -2 -2 -35 -15 -74 -31 -127 -51 -204 -103
-315 -215 -74 -75 -118 -129 -149 -183 -136 -243 -197 -501 -138 -588 47 -70
65 -75 325 -78 210 -3 236 -2 253 14 21 19 24 41 9 64 -8 12 -49 16 -239 20
-211 5 -231 7 -251 25 -19 17 -22 27 -17 75 12 127 92 334 177 461 59 87 172
195 259 247 39 23 73 42 76 42 3 0 5 -22 5 -48 0 -66 22 -136 67 -209 51 -83
88 -123 116 -123 15 0 71 47 177 149 l155 149 151 -149 c164 -163 180 -171
226 -122 75 82 126 190 135 289 l6 63 36 -19 c80 -42 209 -145 197 -157 -3 -3
-33 -12 -68 -20 -34 -8 -68 -19 -75 -25 -18 -15 -17 -179 2 -267 19 -89 53
-175 110 -273 25 -43 45 -80 45 -83 0 -3 -199 -5 -443 -5 -331 0 -446 -3 -455
-12 -7 -7 -12 -24 -12 -38 0 -14 5 -31 12 -38 9 -9 135 -12 503 -12 l490 -1
45 -44 c51 -51 115 -85 160 -85 77 0 205 109 307 260 83 123 122 212 148 336
19 87 20 247 2 262 -7 6 -43 17 -80 26 -109 26 -249 107 -326 190 -34 37 -70
34 -111 -9 -18 -19 -59 -52 -90 -74 l-57 -40 -39 40 c-66 68 -154 130 -259
180 -55 27 -106 49 -112 49 -20 0 -16 9 28 58 100 114 158 248 166 387 5 87 7
91 40 118 45 38 63 76 63 133 0 56 -32 117 -75 144 -27 16 -33 29 -44 85 -16
82 -67 189 -126 265 -64 83 -196 178 -285 205 -14 4 -39 23 -56 41 l-32 34
-121 0 -122 0 -36 -35z m229 -225 c5 -111 14 -181 31 -247 l23 -93 -127 0
-126 0 18 66 c22 80 39 225 39 337 0 46 3 87 7 91 4 4 34 6 68 4 l60 -3 7
-155z m-247 3 c-9 -125 -22 -210 -43 -278 l-18 -60 -152 -3 -153 -3 7 28 c39
161 148 303 286 372 34 17 65 31 70 31 5 0 6 -38 3 -87z m444 39 c110 -63 211
-199 246 -330 l13 -53 -145 3 -146 3 -17 51 c-21 61 -37 157 -46 278 l-6 89
28 -7 c15 -4 48 -19 73 -34z m351 -512 c26 -26 26 -64 0 -90 -20 -20 -33 -20
-625 -20 -592 0 -605 0 -625 20 -24 24 -26 67 -3 92 15 17 48 18 625 18 595 0
608 0 628 -20z m-84 -292 c-18 -174 -133 -351 -300 -459 -115 -76 -218 -100
-314 -75 -250 64 -472 326 -472 558 l0 48 546 0 547 0 -7 -72z m-824 -560 c27
-17 76 -41 109 -52 l59 -22 -106 -104 c-102 -102 -106 -104 -121 -85 -69 88
-98 274 -45 288 38 10 57 6 104 -25z m683 11 c5 -5 9 -39 9 -75 -1 -54 -8 -79
-39 -140 -20 -41 -41 -74 -45 -72 -10 4 -212 200 -208 203 2 1 23 9 48 18 25
10 72 33 105 52 60 35 104 40 130 14z m707 -179 c69 -57 180 -119 255 -142
l75 -23 -6 -70 c-12 -134 -56 -253 -140 -379 -63 -95 -147 -186 -194 -210 -32
-17 -34 -17 -77 8 -78 46 -211 224 -265 353 -33 78 -60 198 -60 263 0 36 2 38
45 49 69 17 173 71 250 128 38 29 72 53 75 53 3 0 22 -14 42 -30z"/>
<path d="M2913 1244 l-82 -85 -40 27 c-39 25 -42 26 -66 10 -24 -16 -33 -50
-17 -71 10 -14 82 -70 109 -84 12 -6 28 -8 37 -5 29 11 206 217 206 240 0 22
-33 54 -55 54 -5 0 -47 -38 -92 -86z"/>
<path d="M1426 864 c-21 -21 -20 -47 2 -67 27 -24 59 -21 78 8 15 23 15 27 0
50 -19 29 -56 33 -80 9z"/>
</g>
</svg>
