<svg id="Layer_1" data-name="Layer 1" xmlns="http://www.w3.org/2000/svg" viewBox="0 0 65.33 21.79"><defs><style>.cls-1{fill:#e95424;}.cls-2{fill:#afafaf;}</style></defs><title>logo-black</title><path class="cls-1" d="M13.32,22.32,3.62,8.66V22.15H1.21V3.34h1l9.45,13v-13h2.4v19Zm14.17-.26-1.28-3.95h-7l-1.37,3.95H15l7.65-19h.6l7,19Zm-4.72-14-2.92,8.25h5.58Zm18.81,14L36.6,14c-.6,0-1.46-.09-2.75-.09v8.16H31.27V3.34c.09,0,.78,0,2-.09s2.15-.08,2.66-.08c4.47,0,6.79,1.8,6.79,5.41a4.83,4.83,0,0,1-1.12,3.18A4.2,4.2,0,0,1,39,13.47l5.41,8.59ZM33.85,5.66v6.1a13.7,13.7,0,0,0,1.8.17A5.6,5.6,0,0,0,39,11.15a3.06,3.06,0,0,0,1-2.66,2.34,2.34,0,0,0-1.11-2.23,7.51,7.51,0,0,0-3.52-.69,5.4,5.4,0,0,0-1.55.09ZM44.41,21.2l1-2.32a8.13,8.13,0,0,0,1.8.86,5.53,5.53,0,0,0,1.89.35,3.2,3.2,0,0,0,2.41-.86,2.62,2.62,0,0,0,.94-2.06,3.66,3.66,0,0,0-.51-1.81,7.28,7.28,0,0,0-2.58-1.8L47.85,13a5.71,5.71,0,0,1-2.66-2.15,5.45,5.45,0,0,1-.78-2.92,4.88,4.88,0,0,1,1.46-3.52A5.76,5.76,0,0,1,49.74,3c2.06,0,3.52.35,4.29,1l-.77,2.23a4.27,4.27,0,0,0-1.54-.69,5.61,5.61,0,0,0-2-.34A2.79,2.79,0,0,0,47.68,6,2.46,2.46,0,0,0,47,7.8a2.87,2.87,0,0,0,.26,1.29A2.13,2.13,0,0,0,48,10a5.6,5.6,0,0,0,1.89,1.2l1.55.77a5.76,5.76,0,0,1,2.66,2.15,6,6,0,0,1,.77,3.18A4.86,4.86,0,0,1,53.18,21a6.94,6.94,0,0,1-4.56,1.46,7.76,7.76,0,0,1-4.21-1.21Zm12.8.86V3.34h2.58V22.06Z" transform="translate(-1.21 -0.62)"/><path class="cls-2" d="M63.78.62A2.9,2.9,0,0,1,65.14,1a2.59,2.59,0,0,1,1,1,2.92,2.92,0,0,1,.37,1.39,2.74,2.74,0,0,1-.37,1.37,2.51,2.51,0,0,1-1,1,2.79,2.79,0,0,1-1.37.37,2.85,2.85,0,0,1-1.37-.37,2.51,2.51,0,0,1-1-1A2.79,2.79,0,0,1,61.4,2a2.53,2.53,0,0,1,1-1A2.89,2.89,0,0,1,63.78.62Zm0,.45a2.36,2.36,0,0,0-1.13.3,2.26,2.26,0,0,0-.86.85,2.43,2.43,0,0,0-.31,1.16,2.22,2.22,0,0,0,.31,1.14,2,2,0,0,0,.85.85,2.27,2.27,0,0,0,2.29,0,2.11,2.11,0,0,0,.85-.85,2.32,2.32,0,0,0,0-2.3,2.13,2.13,0,0,0-.86-.85A2.33,2.33,0,0,0,63.78,1.07ZM62.57,4.9v-3h1a2.32,2.32,0,0,1,.76.09.7.7,0,0,1,.37.28.79.79,0,0,1,.14.44.83.83,0,0,1-.23.57.94.94,0,0,1-.62.27.81.81,0,0,1,.26.15,4.35,4.35,0,0,1,.43.59l.37.58h-.59l-.26-.46a2.8,2.8,0,0,0-.5-.7.7.7,0,0,0-.39-.1h-.28V4.9Zm.48-1.67h.58a1,1,0,0,0,.57-.12.41.41,0,0,0,.15-.33.4.4,0,0,0-.07-.24.43.43,0,0,0-.2-.15,1.38,1.38,0,0,0-.48-.05h-.55Z" transform="translate(-1.21 -0.62)"/></svg>